<?xml version="1.0" standalone="no"?>
<!DOCTYPE svg PUBLIC "-//W3C//DTD SVG 20010904//EN"
 "http://www.w3.org/TR/2001/REC-SVG-20010904/DTD/svg10.dtd">
<svg version="1.0" xmlns="http://www.w3.org/2000/svg"
 width="623.000000pt" height="400.000000pt" viewBox="0 0 623.000000 400.000000"
 preserveAspectRatio="xMidYMid meet">

<g transform="translate(0.000000,400.000000) scale(0.100000,-0.100000)"
fill="#000000" stroke="none">
<path d="M2975 3987 c-60 -20 -102 -44 -146 -84 -50 -45 -71 -86 -102 -196
-13 -48 -32 -98 -41 -111 -39 -60 -289 -162 -503 -205 -132 -27 -162 -27 -204
4 -74 54 -96 66 -147 81 -82 24 -174 5 -247 -50 -17 -13 -47 -53 -65 -88 -30
-55 -34 -72 -33 -133 0 -59 6 -82 37 -145 42 -86 43 -107 15 -243 -23 -114
-94 -266 -157 -337 -35 -40 -41 -43 -126 -56 -113 -18 -189 -58 -261 -135 -74
-81 -99 -148 -99 -264 1 -153 47 -259 146 -334 92 -69 135 -83 284 -91 151 -8
149 -7 262 -120 73 -72 124 -168 130 -244 4 -45 -1 -63 -34 -131 -37 -76 -39
-85 -39 -175 0 -113 21 -165 94 -239 63 -63 128 -93 218 -99 94 -6 154 10 228
61 73 51 102 52 253 13 225 -57 517 -196 625 -295 30 -27 67 -90 67 -113 0 -7
13 -40 29 -74 32 -68 88 -120 167 -156 74 -34 190 -32 264 4 66 33 132 93 162
151 21 38 23 55 23 198 l0 156 30 42 c37 55 93 100 175 142 57 29 76 34 170
39 147 9 215 46 266 147 71 140 7 317 -136 375 -14 6 -70 14 -125 19 -126 11
-155 21 -232 76 -100 70 -202 211 -248 343 -14 38 -13 46 6 98 36 103 49 156
49 212 0 66 -21 154 -52 213 -39 78 -23 149 65 287 53 84 94 131 176 204 132
118 179 137 336 140 85 2 109 7 163 31 73 33 124 84 159 162 22 47 25 65 21
141 -4 102 -25 155 -89 220 -68 68 -118 87 -229 87 -75 0 -104 -4 -141 -21
-69 -32 -116 -79 -151 -153 -29 -60 -32 -73 -29 -146 6 -162 5 -170 -26 -236
-66 -138 -237 -353 -366 -461 -57 -47 -63 -50 -104 -44 -53 7 -92 26 -131 65
-33 34 -86 185 -123 351 -24 110 -37 388 -21 431 6 15 37 46 69 71 101 77 148
167 147 288 0 132 -69 241 -190 301 -74 37 -173 47 -239 26z m183 -143 c125
-62 158 -222 66 -324 -46 -50 -90 -70 -158 -70 -189 0 -283 222 -149 352 74
72 153 86 241 42z m-284 -469 c102 -67 107 -73 150 -165 66 -144 96 -308 96
-530 0 -180 -9 -206 -93 -266 -118 -85 -180 -187 -199 -327 -10 -76 -9 -93 11
-181 29 -122 23 -157 -36 -239 -62 -85 -113 -137 -213 -216 -100 -79 -177
-126 -279 -171 -99 -43 -135 -47 -212 -22 -35 11 -90 26 -121 32 -151 30 -328
233 -345 395 -5 43 -1 60 25 111 75 148 80 259 20 386 -19 40 -49 87 -66 104
-56 56 -72 93 -72 165 0 98 33 211 87 302 66 108 112 153 182 173 31 8 72 25
91 36 50 28 106 103 136 180 28 75 56 103 136 141 138 66 441 144 561 146 55
1 64 -2 141 -54z m1467 15 c42 -12 106 -71 125 -117 28 -65 11 -158 -39 -211
-66 -71 -192 -84 -263 -26 -63 50 -78 78 -82 149 -4 56 -1 70 22 109 51 88
139 123 237 96z m-2505 -29 c97 -44 130 -159 71 -249 -32 -47 -114 -86 -166
-77 -172 29 -206 244 -52 325 46 24 95 25 147 1z m1577 -1084 c92 -54 141
-139 141 -242 -1 -84 -18 -128 -73 -187 -109 -119 -272 -128 -389 -23 -113
102 -131 251 -43 372 60 83 131 115 242 110 61 -3 86 -9 122 -30z m-1997 -35
c58 -30 110 -92 128 -153 20 -67 20 -96 0 -156 -37 -108 -127 -173 -241 -173
-106 0 -180 46 -229 142 -64 126 5 303 137 352 57 21 152 15 205 -12z m2089
-646 c92 -39 284 -216 364 -335 l35 -53 9 -165 8 -165 -26 -53 c-31 -64 -101
-137 -159 -165 -50 -24 -121 -26 -190 -5 -96 29 -196 13 -284 -46 -84 -56
-101 -62 -171 -56 -95 9 -258 61 -396 127 -125 60 -314 184 -339 223 -8 12
-20 52 -26 89 -11 63 -10 70 10 102 36 60 188 193 314 277 67 44 186 112 266
151 157 77 154 76 320 64 69 -5 110 -3 150 7 72 19 75 19 115 3z m755 -438
c52 -36 72 -69 72 -122 0 -119 -116 -190 -224 -137 -143 69 -88 281 72 281 32
0 57 -7 80 -22z m-2164 -43 c84 -49 124 -161 89 -251 -38 -100 -116 -150 -220
-142 -75 6 -131 45 -167 117 -36 70 -36 121 -2 190 56 111 191 150 300 86z
m1471 -609 c101 -67 120 -212 40 -303 -82 -93 -216 -96 -303 -6 -83 88 -68
236 32 305 48 33 64 37 135 33 40 -2 68 -10 96 -29z"/>
<path d="M3002 3767 c-27 -13 -62 -75 -62 -111 0 -38 29 -91 60 -110 33 -19
96 -20 128 -2 36 19 62 66 62 111 0 45 -26 92 -62 111 -28 16 -95 17 -126 1z"/>
<path d="M4223 3305 c-60 -26 -81 -110 -43 -173 32 -51 101 -68 160 -37 84 43
77 174 -11 209 -48 19 -64 19 -106 1z"/>
<path d="M1715 3297 c-57 -26 -72 -105 -30 -155 32 -39 72 -48 119 -28 41 17
72 72 62 112 -16 64 -90 98 -151 71z"/>
<path d="M3193 2181 c-110 -68 -111 -229 -1 -291 51 -29 139 -25 185 8 69 49
85 159 33 230 -16 23 -43 48 -59 57 -42 21 -119 19 -158 -4z"/>
<path d="M1260 2160 c-21 -5 -50 -25 -72 -49 -34 -36 -38 -46 -38 -93 0 -67
25 -110 81 -139 133 -67 279 74 208 201 -37 66 -106 97 -179 80z"/>
<path d="M4135 1118 c-91 -50 -58 -188 45 -188 51 0 100 49 100 99 0 71 -84
123 -145 89z"/>
<path d="M1919 1043 c-86 -53 -77 -183 14 -223 108 -48 218 56 173 163 -28 68
-125 99 -187 60z"/>
<path d="M3387 440 c-57 -45 -72 -111 -37 -168 55 -90 191 -74 221 27 24 79
-26 151 -108 158 -39 4 -53 1 -76 -17z"/>
</g>
</svg>
